<svg width="4302" height="1850" viewBox="0 0 4302 1850" fill="none" xmlns="http://www.w3.org/2000/svg">
<path d="M404.559 879.5L2561.5 224.5L2775.5 1703.5C2311.5 1695.17 1533.42 1684.27 915.059 1637C274.059 1588 80.5576 1556.5 9.05895 1299.5C-52.7371 1077.38 215.059 942.667 404.559 879.5Z" fill="#232531"/>
<path d="M3061.5 1688.55C3746.08 1599.4 4256.51 1185.27 4201.59 763.57C4146.67 341.872 3547.19 72.2927 2862.62 161.448C2178.04 250.604 1667.61 664.732 1722.53 1086.43C1777.45 1508.13 2376.93 1777.71 3061.5 1688.55Z" fill="#8993BE"/>
<path fill-rule="evenodd" clip-rule="evenodd" d="M2059.06 1377.28L2196.05 683.785H2512.82C2649.8 692.35 2718.3 760.836 2718.3 880.709C2718.3 1086.19 2555.63 1206.05 2410.07 1197.49H2255.98L2221.73 1377.28H2059.06ZM2290.22 1069.07L2333.03 812.213H2444.33C2504.26 812.213 2547.07 837.896 2547.07 889.264C2538.51 1034.82 2470.01 1060.5 2392.96 1069.07H2290.23H2290.22ZM2686.47 1197.49L2823.45 504H2986.13L2951.88 683.785H3105.98C3242.97 692.35 3294.34 760.836 3277.22 846.461L3217.29 1197.49H3046.06L3105.99 880.709C3114.55 837.896 3114.55 812.213 3054.62 812.213H2926.2L2849.15 1197.49H2686.47V1197.49ZM3206.32 1377.28L3343.31 683.785H3660.08C3797.08 692.35 3865.57 760.836 3865.57 880.709C3865.57 1086.19 3702.9 1206.05 3557.35 1197.49H3403.24L3368.99 1377.28H3206.32V1377.28ZM3437.48 1069.07L3480.29 812.213H3591.6C3651.53 812.213 3694.33 837.896 3694.33 889.264C3685.78 1034.82 3617.28 1060.5 3540.23 1069.07H3437.49H3437.48Z" fill="#232531"/>
<path d="M472.285 1107.27L460.211 1178.3H280.523L292.597 1107.27H472.285ZM338.052 1041.93H436.063L394.515 1292.29C393.923 1296.07 394.041 1299.27 394.87 1301.87C395.699 1304.36 397.356 1306.25 399.842 1307.56C402.446 1308.74 405.879 1309.33 410.14 1309.33C412.981 1309.33 416.473 1308.98 420.616 1308.27C424.759 1307.44 427.896 1306.85 430.026 1306.49L432.867 1375.38C427.896 1376.8 421.208 1378.4 412.803 1380.18C404.517 1382.07 394.87 1383.31 383.862 1383.91C360.897 1384.97 342.195 1382.54 327.754 1376.63C313.431 1370.71 303.487 1361.47 297.924 1348.93C292.479 1336.26 291.532 1320.46 295.083 1301.52L338.052 1041.93Z" fill="#CAD4FE"/>
<path d="M659.995 1391.96C618.565 1391.96 584.427 1383.76 557.58 1367.35C530.899 1350.78 512.173 1327.74 501.401 1298.25C490.629 1268.58 488.475 1234.19 494.938 1195.09C501.401 1155.98 514.907 1121.67 535.457 1092.17C556.006 1062.51 582.438 1039.47 614.754 1023.07C647.069 1006.5 684.024 998.21 725.62 998.21C766.884 998.21 800.857 1006.5 827.538 1023.07C854.384 1039.47 873.193 1062.51 883.965 1092.17C894.903 1121.67 897.14 1155.98 890.677 1195.09C884.214 1234.19 870.625 1268.58 849.91 1298.25C829.195 1327.74 802.68 1350.78 770.364 1367.35C738.215 1383.76 701.425 1391.96 659.995 1391.96ZM676.898 1290.54C688.83 1290.54 699.685 1286.65 709.462 1278.86C719.406 1271.07 727.857 1259.96 734.817 1245.55C741.943 1231.13 747.164 1213.98 750.478 1194.09C753.792 1174.04 754.29 1156.89 751.969 1142.63C749.649 1128.22 744.844 1117.11 737.552 1109.33C730.26 1101.54 720.648 1097.64 708.717 1097.64C696.785 1097.64 685.847 1101.54 675.904 1109.33C665.961 1117.11 657.509 1128.22 650.549 1142.63C643.589 1156.89 638.451 1174.04 635.137 1194.09C631.823 1213.98 631.243 1231.13 633.397 1245.55C635.717 1259.96 640.523 1271.07 647.815 1278.86C655.272 1286.65 664.967 1290.54 676.898 1290.54Z" fill="#CAD4FE"/>
<path d="M1083.33 1131.55L1042.42 1377H885.603L958.33 940.636H1107.19L1093.56 1023.59H1098.1C1111.93 995.75 1132.1 974.064 1158.61 958.534C1185.32 942.814 1214.77 934.955 1246.97 934.955C1277.84 934.955 1303.5 941.962 1323.96 955.977C1344.41 969.992 1358.9 989.311 1367.42 1013.93C1375.94 1038.55 1377.46 1066.77 1371.97 1098.59L1325.38 1377H1168.56L1209.47 1131.55C1213.07 1109.95 1210.41 1093 1201.51 1080.69C1192.8 1068.38 1178.41 1062.23 1158.33 1062.23C1145.64 1062.23 1133.99 1065.07 1123.39 1070.75C1112.97 1076.24 1104.26 1084.2 1097.25 1094.61C1090.43 1104.84 1085.79 1117.15 1083.33 1131.55Z" fill="#CAD4FE"/>
<path d="M1615.26 1386.94C1557.02 1386.94 1508.73 1375.82 1470.38 1353.56C1432.02 1331.07 1405.03 1298.87 1389.41 1256.97C1373.78 1214.83 1370.94 1164.41 1380.89 1105.69C1390.36 1049.35 1409.89 1000.11 1439.48 957.966C1469.31 915.826 1506.83 883.037 1552.05 859.599C1597.51 836.162 1648.41 824.443 1704.75 824.443C1745.94 824.443 1782.05 830.835 1813.06 843.619C1844.31 856.403 1869.76 874.988 1889.41 899.372C1909.06 923.757 1922.32 953.231 1929.18 987.795C1936.28 1022.12 1936.28 1060.95 1929.18 1104.27L1922.08 1149.73H1434.86L1451.91 1041.77H1758.73C1761.1 1026.15 1759.56 1012.42 1754.11 1000.58C1748.9 988.506 1740.5 979.154 1728.9 972.526C1717.53 965.66 1703.8 962.227 1687.71 962.227C1671.61 962.227 1656.46 965.66 1642.25 972.526C1628.28 979.391 1616.33 988.979 1606.38 1001.29C1596.68 1013.6 1590.17 1028.04 1586.85 1044.61L1565.55 1158.25C1562.71 1175.77 1563.77 1191.39 1568.74 1205.12C1573.71 1218.86 1582.35 1229.63 1594.67 1237.44C1606.98 1245.25 1622.84 1249.16 1642.25 1249.16C1655.51 1249.16 1668.06 1247.38 1679.89 1243.83C1691.97 1240.04 1702.62 1234.6 1711.85 1227.5C1721.32 1220.16 1728.9 1211.28 1734.58 1200.86H1913.56C1900.77 1238.74 1880.53 1271.65 1852.83 1299.59C1825.37 1327.28 1791.52 1348.83 1751.27 1364.22C1711.26 1379.37 1665.92 1386.94 1615.26 1386.94Z" fill="#CAD4FE"/>
</svg>
